<mxfile host="app.diagrams.net" modified="2024-01-07T08:31:31.493Z" agent="Mozilla/5.0 (Windows NT 10.0; Win64; x64) AppleWebKit/537.36 (KHTML, like Gecko) Chrome/120.0.0.0 Safari/537.36" etag="7FOxJdxogZKEkRTipQy5" version="22.1.16" type="google">
  <diagram name="Seite-1" id="h6d2l6eCHxi8x-wlBraX">
    <mxGraphModel grid="1" page="1" gridSize="10" guides="1" tooltips="1" connect="1" arrows="1" fold="1" pageScale="1" pageWidth="827" pageHeight="1169" math="0" shadow="0">
      <root>
        <mxCell id="0" />
        <mxCell id="1" parent="0" />
        <mxCell id="UWrfXvjMy7OWisbZCzda-86" style="edgeStyle=orthogonalEdgeStyle;rounded=0;orthogonalLoop=1;jettySize=auto;html=1;exitX=0.5;exitY=1;exitDx=0;exitDy=0;entryX=0.5;entryY=0;entryDx=0;entryDy=0;" edge="1" parent="1" source="UWrfXvjMy7OWisbZCzda-1" target="UWrfXvjMy7OWisbZCzda-11">
          <mxGeometry relative="1" as="geometry" />
        </mxCell>
        <mxCell id="UWrfXvjMy7OWisbZCzda-1" value="" style="ellipse;html=1;shape=startState;fillColor=#000000;strokeColor=#000000;" vertex="1" parent="1">
          <mxGeometry x="384" y="10" width="30" height="30" as="geometry" />
        </mxCell>
        <mxCell id="UWrfXvjMy7OWisbZCzda-26" style="edgeStyle=orthogonalEdgeStyle;rounded=0;orthogonalLoop=1;jettySize=auto;html=1;exitX=0.5;exitY=1;exitDx=0;exitDy=0;entryX=0.5;entryY=0;entryDx=0;entryDy=0;" edge="1" parent="1" source="UWrfXvjMy7OWisbZCzda-3" target="UWrfXvjMy7OWisbZCzda-19">
          <mxGeometry relative="1" as="geometry" />
        </mxCell>
        <mxCell id="UWrfXvjMy7OWisbZCzda-3" value="Angemeldet" style="rounded=1;whiteSpace=wrap;html=1;" vertex="1" parent="1">
          <mxGeometry x="339" y="161" width="120" height="60" as="geometry" />
        </mxCell>
        <mxCell id="UWrfXvjMy7OWisbZCzda-4" value="Aufgenommen" style="rounded=1;whiteSpace=wrap;html=1;verticalAlign=top;" vertex="1" parent="1">
          <mxGeometry x="49" y="360" width="700" height="630" as="geometry" />
        </mxCell>
        <mxCell id="UWrfXvjMy7OWisbZCzda-6" value="" style="ellipse;html=1;shape=endState;fillColor=#000000;strokeColor=#000000;" vertex="1" parent="1">
          <mxGeometry x="385" y="1100" width="30" height="30" as="geometry" />
        </mxCell>
        <mxCell id="UWrfXvjMy7OWisbZCzda-17" style="edgeStyle=orthogonalEdgeStyle;rounded=0;orthogonalLoop=1;jettySize=auto;html=1;exitX=0.5;exitY=1;exitDx=0;exitDy=0;entryX=0.5;entryY=0;entryDx=0;entryDy=0;" edge="1" parent="1" source="UWrfXvjMy7OWisbZCzda-11" target="UWrfXvjMy7OWisbZCzda-3">
          <mxGeometry relative="1" as="geometry" />
        </mxCell>
        <mxCell id="UWrfXvjMy7OWisbZCzda-11" value="" style="rhombus;whiteSpace=wrap;html=1;" vertex="1" parent="1">
          <mxGeometry x="389" y="82" width="20" height="20" as="geometry" />
        </mxCell>
        <mxCell id="UWrfXvjMy7OWisbZCzda-14" value="" style="ellipse;html=1;shape=endState;fillColor=#000000;strokeColor=#000000;" vertex="1" parent="1">
          <mxGeometry x="584" y="78" width="30" height="30" as="geometry" />
        </mxCell>
        <mxCell id="UWrfXvjMy7OWisbZCzda-15" style="edgeStyle=orthogonalEdgeStyle;rounded=0;orthogonalLoop=1;jettySize=auto;html=1;exitX=1;exitY=0.5;exitDx=0;exitDy=0;entryX=-0.149;entryY=0.495;entryDx=0;entryDy=0;entryPerimeter=0;" edge="1" parent="1" source="UWrfXvjMy7OWisbZCzda-11" target="UWrfXvjMy7OWisbZCzda-14">
          <mxGeometry relative="1" as="geometry">
            <mxPoint x="550" y="92" as="targetPoint" />
          </mxGeometry>
        </mxCell>
        <mxCell id="UWrfXvjMy7OWisbZCzda-16" value="nicht bezahlt" style="text;html=1;strokeColor=none;fillColor=none;align=center;verticalAlign=middle;whiteSpace=wrap;rounded=0;" vertex="1" parent="1">
          <mxGeometry x="439" y="90" width="100" height="30" as="geometry" />
        </mxCell>
        <mxCell id="UWrfXvjMy7OWisbZCzda-18" value="bezahlt" style="text;html=1;strokeColor=none;fillColor=none;align=center;verticalAlign=middle;whiteSpace=wrap;rounded=0;" vertex="1" parent="1">
          <mxGeometry x="339" y="112" width="60" height="30" as="geometry" />
        </mxCell>
        <mxCell id="UWrfXvjMy7OWisbZCzda-27" style="edgeStyle=orthogonalEdgeStyle;rounded=0;orthogonalLoop=1;jettySize=auto;html=1;exitX=0.5;exitY=1;exitDx=0;exitDy=0;entryX=0.5;entryY=0;entryDx=0;entryDy=0;" edge="1" parent="1" source="UWrfXvjMy7OWisbZCzda-19" target="UWrfXvjMy7OWisbZCzda-4">
          <mxGeometry relative="1" as="geometry" />
        </mxCell>
        <mxCell id="UWrfXvjMy7OWisbZCzda-28" style="edgeStyle=orthogonalEdgeStyle;rounded=0;orthogonalLoop=1;jettySize=auto;html=1;exitX=1;exitY=0.5;exitDx=0;exitDy=0;" edge="1" parent="1" source="UWrfXvjMy7OWisbZCzda-19">
          <mxGeometry relative="1" as="geometry">
            <mxPoint x="580" y="280" as="targetPoint" />
          </mxGeometry>
        </mxCell>
        <mxCell id="UWrfXvjMy7OWisbZCzda-19" value="" style="rhombus;whiteSpace=wrap;html=1;" vertex="1" parent="1">
          <mxGeometry x="389" y="270" width="20" height="20" as="geometry" />
        </mxCell>
        <mxCell id="UWrfXvjMy7OWisbZCzda-22" value="Aufnahmeprüfung" style="text;html=1;strokeColor=none;fillColor=none;align=center;verticalAlign=middle;whiteSpace=wrap;rounded=0;" vertex="1" parent="1">
          <mxGeometry x="400" y="237" width="110" height="30" as="geometry" />
        </mxCell>
        <mxCell id="UWrfXvjMy7OWisbZCzda-23" value="" style="ellipse;html=1;shape=endState;fillColor=#000000;strokeColor=#000000;" vertex="1" parent="1">
          <mxGeometry x="585" y="265" width="30" height="30" as="geometry" />
        </mxCell>
        <mxCell id="UWrfXvjMy7OWisbZCzda-24" value="nicht bestanden" style="text;html=1;strokeColor=none;fillColor=none;align=center;verticalAlign=middle;whiteSpace=wrap;rounded=0;" vertex="1" parent="1">
          <mxGeometry x="439" y="281" width="100" height="30" as="geometry" />
        </mxCell>
        <mxCell id="UWrfXvjMy7OWisbZCzda-25" value="bestanden" style="text;html=1;strokeColor=none;fillColor=none;align=center;verticalAlign=middle;whiteSpace=wrap;rounded=0;" vertex="1" parent="1">
          <mxGeometry x="339" y="297" width="60" height="30" as="geometry" />
        </mxCell>
        <mxCell id="UWrfXvjMy7OWisbZCzda-53" style="edgeStyle=orthogonalEdgeStyle;rounded=0;orthogonalLoop=1;jettySize=auto;html=1;exitX=0.5;exitY=1;exitDx=0;exitDy=0;entryX=0.5;entryY=0;entryDx=0;entryDy=0;" edge="1" parent="1" source="UWrfXvjMy7OWisbZCzda-29" target="UWrfXvjMy7OWisbZCzda-32">
          <mxGeometry relative="1" as="geometry" />
        </mxCell>
        <mxCell id="UWrfXvjMy7OWisbZCzda-29" value="Probezeit" style="rounded=1;whiteSpace=wrap;html=1;" vertex="1" parent="1">
          <mxGeometry x="340" y="455" width="120" height="60" as="geometry" />
        </mxCell>
        <mxCell id="UWrfXvjMy7OWisbZCzda-47" style="edgeStyle=orthogonalEdgeStyle;rounded=0;orthogonalLoop=1;jettySize=auto;html=1;exitX=0.5;exitY=1;exitDx=0;exitDy=0;entryX=0.5;entryY=0;entryDx=0;entryDy=0;" edge="1" parent="1" source="UWrfXvjMy7OWisbZCzda-30" target="UWrfXvjMy7OWisbZCzda-29">
          <mxGeometry relative="1" as="geometry" />
        </mxCell>
        <mxCell id="UWrfXvjMy7OWisbZCzda-30" value="" style="ellipse;html=1;shape=startState;fillColor=#000000;strokeColor=#000000;" vertex="1" parent="1">
          <mxGeometry x="385" y="393" width="30" height="30" as="geometry" />
        </mxCell>
        <mxCell id="UWrfXvjMy7OWisbZCzda-31" value="Anmeldegeühr" style="text;html=1;strokeColor=none;fillColor=none;align=center;verticalAlign=middle;whiteSpace=wrap;rounded=0;" vertex="1" parent="1">
          <mxGeometry x="399" y="40" width="101" height="30" as="geometry" />
        </mxCell>
        <mxCell id="UWrfXvjMy7OWisbZCzda-35" style="edgeStyle=orthogonalEdgeStyle;rounded=0;orthogonalLoop=1;jettySize=auto;html=1;exitX=1;exitY=0.5;exitDx=0;exitDy=0;entryX=0;entryY=0.5;entryDx=0;entryDy=0;" edge="1" parent="1" source="UWrfXvjMy7OWisbZCzda-32" target="UWrfXvjMy7OWisbZCzda-34">
          <mxGeometry relative="1" as="geometry" />
        </mxCell>
        <mxCell id="UWrfXvjMy7OWisbZCzda-49" style="edgeStyle=orthogonalEdgeStyle;rounded=0;orthogonalLoop=1;jettySize=auto;html=1;exitX=0;exitY=0.5;exitDx=0;exitDy=0;entryX=0.5;entryY=0;entryDx=0;entryDy=0;" edge="1" parent="1" source="UWrfXvjMy7OWisbZCzda-32" target="UWrfXvjMy7OWisbZCzda-37">
          <mxGeometry relative="1" as="geometry" />
        </mxCell>
        <mxCell id="UWrfXvjMy7OWisbZCzda-32" value="" style="rhombus;whiteSpace=wrap;html=1;" vertex="1" parent="1">
          <mxGeometry x="389" y="550" width="20" height="20" as="geometry" />
        </mxCell>
        <mxCell id="UWrfXvjMy7OWisbZCzda-33" value="Promotion" style="text;html=1;strokeColor=none;fillColor=none;align=center;verticalAlign=middle;whiteSpace=wrap;rounded=0;" vertex="1" parent="1">
          <mxGeometry x="403" y="520" width="60" height="30" as="geometry" />
        </mxCell>
        <mxCell id="UWrfXvjMy7OWisbZCzda-34" value="" style="ellipse;html=1;shape=endState;fillColor=#000000;strokeColor=#000000;" vertex="1" parent="1">
          <mxGeometry x="784" y="545" width="30" height="30" as="geometry" />
        </mxCell>
        <mxCell id="UWrfXvjMy7OWisbZCzda-36" value="nicht erfüllt" style="text;html=1;strokeColor=none;fillColor=none;align=center;verticalAlign=middle;whiteSpace=wrap;rounded=0;" vertex="1" parent="1">
          <mxGeometry x="449" y="560" width="71" height="30" as="geometry" />
        </mxCell>
        <mxCell id="UWrfXvjMy7OWisbZCzda-52" style="edgeStyle=orthogonalEdgeStyle;rounded=0;orthogonalLoop=1;jettySize=auto;html=1;exitX=0.5;exitY=1;exitDx=0;exitDy=0;entryX=0.5;entryY=0;entryDx=0;entryDy=0;" edge="1" parent="1" source="UWrfXvjMy7OWisbZCzda-37" target="UWrfXvjMy7OWisbZCzda-38">
          <mxGeometry relative="1" as="geometry" />
        </mxCell>
        <mxCell id="UWrfXvjMy7OWisbZCzda-37" value="definitiv" style="rounded=1;whiteSpace=wrap;html=1;" vertex="1" parent="1">
          <mxGeometry x="111" y="610" width="120" height="60" as="geometry" />
        </mxCell>
        <mxCell id="UWrfXvjMy7OWisbZCzda-54" style="edgeStyle=orthogonalEdgeStyle;rounded=0;orthogonalLoop=1;jettySize=auto;html=1;exitX=1;exitY=0.5;exitDx=0;exitDy=0;entryX=0;entryY=0.5;entryDx=0;entryDy=0;" edge="1" parent="1" source="UWrfXvjMy7OWisbZCzda-38" target="UWrfXvjMy7OWisbZCzda-40">
          <mxGeometry relative="1" as="geometry" />
        </mxCell>
        <mxCell id="UWrfXvjMy7OWisbZCzda-55" style="edgeStyle=orthogonalEdgeStyle;rounded=0;orthogonalLoop=1;jettySize=auto;html=1;exitX=0;exitY=0.5;exitDx=0;exitDy=0;entryX=0;entryY=0.5;entryDx=0;entryDy=0;" edge="1" parent="1" source="UWrfXvjMy7OWisbZCzda-38" target="UWrfXvjMy7OWisbZCzda-37">
          <mxGeometry relative="1" as="geometry">
            <Array as="points">
              <mxPoint x="90" y="719" />
              <mxPoint x="90" y="640" />
            </Array>
          </mxGeometry>
        </mxCell>
        <mxCell id="UWrfXvjMy7OWisbZCzda-38" value="" style="rhombus;whiteSpace=wrap;html=1;" vertex="1" parent="1">
          <mxGeometry x="161" y="710" width="20" height="20" as="geometry" />
        </mxCell>
        <mxCell id="UWrfXvjMy7OWisbZCzda-39" value="Promotion" style="text;html=1;strokeColor=none;fillColor=none;align=center;verticalAlign=middle;whiteSpace=wrap;rounded=0;" vertex="1" parent="1">
          <mxGeometry x="151" y="729" width="60" height="30" as="geometry" />
        </mxCell>
        <mxCell id="UWrfXvjMy7OWisbZCzda-57" style="edgeStyle=orthogonalEdgeStyle;rounded=0;orthogonalLoop=1;jettySize=auto;html=1;exitX=0.5;exitY=1;exitDx=0;exitDy=0;entryX=0.5;entryY=0;entryDx=0;entryDy=0;" edge="1" parent="1" source="UWrfXvjMy7OWisbZCzda-40" target="UWrfXvjMy7OWisbZCzda-41">
          <mxGeometry relative="1" as="geometry" />
        </mxCell>
        <mxCell id="UWrfXvjMy7OWisbZCzda-40" value="provisorisch" style="rounded=1;whiteSpace=wrap;html=1;" vertex="1" parent="1">
          <mxGeometry x="339" y="690" width="120" height="60" as="geometry" />
        </mxCell>
        <mxCell id="UWrfXvjMy7OWisbZCzda-58" style="edgeStyle=orthogonalEdgeStyle;rounded=0;orthogonalLoop=1;jettySize=auto;html=1;exitX=1;exitY=0.5;exitDx=0;exitDy=0;entryX=0;entryY=0.5;entryDx=0;entryDy=0;" edge="1" parent="1" source="UWrfXvjMy7OWisbZCzda-41" target="UWrfXvjMy7OWisbZCzda-43">
          <mxGeometry relative="1" as="geometry" />
        </mxCell>
        <mxCell id="UWrfXvjMy7OWisbZCzda-59" style="edgeStyle=orthogonalEdgeStyle;rounded=0;orthogonalLoop=1;jettySize=auto;html=1;exitX=0;exitY=0.5;exitDx=0;exitDy=0;entryX=0;entryY=0.5;entryDx=0;entryDy=0;" edge="1" parent="1" source="UWrfXvjMy7OWisbZCzda-41" target="UWrfXvjMy7OWisbZCzda-40">
          <mxGeometry relative="1" as="geometry" />
        </mxCell>
        <mxCell id="UWrfXvjMy7OWisbZCzda-41" value="" style="rhombus;whiteSpace=wrap;html=1;" vertex="1" parent="1">
          <mxGeometry x="389" y="798" width="20" height="20" as="geometry" />
        </mxCell>
        <mxCell id="UWrfXvjMy7OWisbZCzda-42" value="Promotion" style="text;html=1;strokeColor=none;fillColor=none;align=center;verticalAlign=middle;whiteSpace=wrap;rounded=0;" vertex="1" parent="1">
          <mxGeometry x="339" y="778" width="60" height="30" as="geometry" />
        </mxCell>
        <mxCell id="UWrfXvjMy7OWisbZCzda-60" style="edgeStyle=orthogonalEdgeStyle;rounded=0;orthogonalLoop=1;jettySize=auto;html=1;exitX=0.5;exitY=1;exitDx=0;exitDy=0;entryX=0.5;entryY=0;entryDx=0;entryDy=0;" edge="1" parent="1" source="UWrfXvjMy7OWisbZCzda-43" target="UWrfXvjMy7OWisbZCzda-44">
          <mxGeometry relative="1" as="geometry" />
        </mxCell>
        <mxCell id="UWrfXvjMy7OWisbZCzda-43" value="Repetent" style="rounded=1;whiteSpace=wrap;html=1;" vertex="1" parent="1">
          <mxGeometry x="560" y="778" width="120" height="60" as="geometry" />
        </mxCell>
        <mxCell id="UWrfXvjMy7OWisbZCzda-63" style="edgeStyle=orthogonalEdgeStyle;rounded=0;orthogonalLoop=1;jettySize=auto;html=1;exitX=1;exitY=0.5;exitDx=0;exitDy=0;entryX=0;entryY=0.5;entryDx=0;entryDy=0;" edge="1" parent="1" source="UWrfXvjMy7OWisbZCzda-44" target="UWrfXvjMy7OWisbZCzda-61">
          <mxGeometry relative="1" as="geometry" />
        </mxCell>
        <mxCell id="UWrfXvjMy7OWisbZCzda-71" style="edgeStyle=orthogonalEdgeStyle;rounded=0;orthogonalLoop=1;jettySize=auto;html=1;exitX=0;exitY=0.5;exitDx=0;exitDy=0;entryX=1;entryY=0.5;entryDx=0;entryDy=0;" edge="1" parent="1" source="UWrfXvjMy7OWisbZCzda-44" target="UWrfXvjMy7OWisbZCzda-64">
          <mxGeometry relative="1" as="geometry" />
        </mxCell>
        <mxCell id="UWrfXvjMy7OWisbZCzda-44" value="" style="rhombus;whiteSpace=wrap;html=1;" vertex="1" parent="1">
          <mxGeometry x="610" y="879" width="20" height="20" as="geometry" />
        </mxCell>
        <mxCell id="UWrfXvjMy7OWisbZCzda-45" value="Promotion" style="text;html=1;strokeColor=none;fillColor=none;align=center;verticalAlign=middle;whiteSpace=wrap;rounded=0;" vertex="1" parent="1">
          <mxGeometry x="631" y="850" width="60" height="30" as="geometry" />
        </mxCell>
        <mxCell id="UWrfXvjMy7OWisbZCzda-46" value="nicht erfüllt" style="text;html=1;strokeColor=none;fillColor=none;align=center;verticalAlign=middle;whiteSpace=wrap;rounded=0;" vertex="1" parent="1">
          <mxGeometry x="640" y="888" width="71" height="30" as="geometry" />
        </mxCell>
        <mxCell id="UWrfXvjMy7OWisbZCzda-50" value="erfüllt" style="text;html=1;strokeColor=none;fillColor=none;align=center;verticalAlign=middle;whiteSpace=wrap;rounded=0;" vertex="1" parent="1">
          <mxGeometry x="330" y="560" width="60" height="30" as="geometry" />
        </mxCell>
        <mxCell id="UWrfXvjMy7OWisbZCzda-61" value="" style="ellipse;html=1;shape=endState;fillColor=#000000;strokeColor=#000000;" vertex="1" parent="1">
          <mxGeometry x="784" y="874" width="30" height="30" as="geometry" />
        </mxCell>
        <mxCell id="UWrfXvjMy7OWisbZCzda-66" style="edgeStyle=orthogonalEdgeStyle;rounded=0;orthogonalLoop=1;jettySize=auto;html=1;exitX=0.5;exitY=1;exitDx=0;exitDy=0;entryX=0.5;entryY=0;entryDx=0;entryDy=0;" edge="1" parent="1" source="UWrfXvjMy7OWisbZCzda-64" target="UWrfXvjMy7OWisbZCzda-65">
          <mxGeometry relative="1" as="geometry" />
        </mxCell>
        <mxCell id="UWrfXvjMy7OWisbZCzda-64" value="Prüfungskandidat" style="rounded=1;whiteSpace=wrap;html=1;" vertex="1" parent="1">
          <mxGeometry x="339" y="859" width="120" height="60" as="geometry" />
        </mxCell>
        <mxCell id="UWrfXvjMy7OWisbZCzda-70" style="edgeStyle=orthogonalEdgeStyle;rounded=0;orthogonalLoop=1;jettySize=auto;html=1;exitX=1;exitY=0.5;exitDx=0;exitDy=0;entryX=0;entryY=0.5;entryDx=0;entryDy=0;" edge="1" parent="1" source="UWrfXvjMy7OWisbZCzda-65" target="UWrfXvjMy7OWisbZCzda-43">
          <mxGeometry relative="1" as="geometry" />
        </mxCell>
        <mxCell id="UWrfXvjMy7OWisbZCzda-75" style="edgeStyle=orthogonalEdgeStyle;rounded=0;orthogonalLoop=1;jettySize=auto;html=1;exitX=0.5;exitY=1;exitDx=0;exitDy=0;entryX=0.5;entryY=0;entryDx=0;entryDy=0;" edge="1" parent="1" source="UWrfXvjMy7OWisbZCzda-65" target="UWrfXvjMy7OWisbZCzda-74">
          <mxGeometry relative="1" as="geometry" />
        </mxCell>
        <mxCell id="UWrfXvjMy7OWisbZCzda-65" value="" style="rhombus;whiteSpace=wrap;html=1;" vertex="1" parent="1">
          <mxGeometry x="390" y="945" width="20" height="20" as="geometry" />
        </mxCell>
        <mxCell id="UWrfXvjMy7OWisbZCzda-72" value="nicht bestanden" style="text;html=1;strokeColor=none;fillColor=none;align=center;verticalAlign=middle;whiteSpace=wrap;rounded=0;" vertex="1" parent="1">
          <mxGeometry x="419" y="953" width="71" height="30" as="geometry" />
        </mxCell>
        <mxCell id="UWrfXvjMy7OWisbZCzda-76" style="edgeStyle=orthogonalEdgeStyle;rounded=0;orthogonalLoop=1;jettySize=auto;html=1;exitX=0.5;exitY=1;exitDx=0;exitDy=0;entryX=0.5;entryY=0;entryDx=0;entryDy=0;" edge="1" parent="1" source="UWrfXvjMy7OWisbZCzda-74" target="UWrfXvjMy7OWisbZCzda-6">
          <mxGeometry relative="1" as="geometry" />
        </mxCell>
        <mxCell id="UWrfXvjMy7OWisbZCzda-74" value="Alumnus" style="rounded=1;whiteSpace=wrap;html=1;" vertex="1" parent="1">
          <mxGeometry x="340" y="1010" width="120" height="60" as="geometry" />
        </mxCell>
        <mxCell id="UWrfXvjMy7OWisbZCzda-77" value="bestanden" style="text;html=1;strokeColor=none;fillColor=none;align=center;verticalAlign=middle;whiteSpace=wrap;rounded=0;" vertex="1" parent="1">
          <mxGeometry x="339" y="965" width="60" height="30" as="geometry" />
        </mxCell>
        <mxCell id="UWrfXvjMy7OWisbZCzda-78" value="nicht erfüllt" style="text;html=1;strokeColor=none;fillColor=none;align=center;verticalAlign=middle;whiteSpace=wrap;rounded=0;" vertex="1" parent="1">
          <mxGeometry x="430" y="778" width="70" height="30" as="geometry" />
        </mxCell>
        <mxCell id="UWrfXvjMy7OWisbZCzda-80" value="erfüllt" style="text;html=1;strokeColor=none;fillColor=none;align=center;verticalAlign=middle;whiteSpace=wrap;rounded=0;" vertex="1" parent="1">
          <mxGeometry x="324" y="808" width="60" height="30" as="geometry" />
        </mxCell>
        <mxCell id="UWrfXvjMy7OWisbZCzda-81" value="nicht erfüllt" style="text;html=1;strokeColor=none;fillColor=none;align=center;verticalAlign=middle;whiteSpace=wrap;rounded=0;" vertex="1" parent="1">
          <mxGeometry x="211" y="690" width="80" height="30" as="geometry" />
        </mxCell>
        <mxCell id="UWrfXvjMy7OWisbZCzda-82" value="erfüllt" style="text;html=1;strokeColor=none;fillColor=none;align=center;verticalAlign=middle;whiteSpace=wrap;rounded=0;" vertex="1" parent="1">
          <mxGeometry x="545" y="888" width="60" height="30" as="geometry" />
        </mxCell>
        <mxCell id="UWrfXvjMy7OWisbZCzda-83" value="Abschlussprüfung" style="text;html=1;strokeColor=none;fillColor=none;align=center;verticalAlign=middle;whiteSpace=wrap;rounded=0;" vertex="1" parent="1">
          <mxGeometry x="275" y="935" width="110" height="30" as="geometry" />
        </mxCell>
        <mxCell id="UWrfXvjMy7OWisbZCzda-84" value="erfüllt" style="text;html=1;strokeColor=none;fillColor=none;align=center;verticalAlign=middle;whiteSpace=wrap;rounded=0;" vertex="1" parent="1">
          <mxGeometry x="91" y="690" width="60" height="30" as="geometry" />
        </mxCell>
        <mxCell id="UWrfXvjMy7OWisbZCzda-87" value="Übergang definitiv&lt;br&gt;Prüfungskandidat?" style="strokeWidth=1;shadow=0;dashed=0;align=center;html=1;shape=mxgraph.mockup.text.stickyNote2;fontColor=#666666;mainText=;fontSize=17;whiteSpace=wrap;fillColor=#ffffcc;strokeColor=#F62E00;" vertex="1" parent="1">
          <mxGeometry x="40" y="990" width="181" height="161" as="geometry" />
        </mxCell>
      </root>
    </mxGraphModel>
  </diagram>
</mxfile>
